<svg width="46" height="43" viewBox="0 0 46 43" fill="none" xmlns="http://www.w3.org/2000/svg">
<path d="M31.0051 13.5855C30.5073 13.088 29.8455 12.8137 29.1417 12.8137C28.4378 12.8137 27.7761 13.088 27.2786 13.5855C26.7807 14.0834 26.5064 14.7451 26.5064 15.449C26.5064 16.1528 26.7807 16.8146 27.2782 17.312L31.7674 21.8012C32.2648 22.2986 32.927 22.573 33.6308 22.573C34.3347 22.573 34.996 22.2986 35.4939 21.8012L45.0852 12.2099C45.583 11.712 45.857 11.0503 45.857 10.3468C45.857 9.64299 45.583 8.98125 45.0852 8.48338C44.5877 7.98551 43.9255 7.71155 43.2217 7.71155C42.5178 7.71155 41.8561 7.98551 41.3586 8.48338L40.3012 9.54083C39.5177 8.94288 38.6579 8.46336 37.7468 8.11644V6.91763C37.7468 5.46447 36.5647 4.28234 35.1119 4.28234H26.8491V3.3675C26.8491 1.5107 25.3384 0 23.4816 0H14.2669C12.4101 0 10.8994 1.5107 10.8994 3.3675V7.1724C10.8994 8.204 11.7388 9.04338 12.7704 9.04338H24.9782C26.0098 9.04338 26.8491 8.204 26.8491 7.1724V5.88603H35.1115C35.6803 5.88603 36.1431 6.34888 36.1431 6.91763V7.6561C35.483 7.52266 34.8075 7.45178 34.1241 7.45178C28.5079 7.45178 23.9386 12.021 23.9386 17.6372C23.9386 23.2535 28.5079 27.8227 34.1241 27.8227C34.8092 27.8227 35.4847 27.7539 36.1431 27.6217L36.1414 39.7193C36.1414 40.2881 35.6785 40.7505 35.1098 40.7505H2.63487C2.06612 40.7505 1.60369 40.2881 1.60369 39.7193L1.6054 6.91763C1.6054 6.34888 2.06783 5.88603 2.63658 5.88603H7.96679C8.40962 5.88603 8.76863 5.52702 8.76863 5.08419C8.76863 4.64136 8.40962 4.28234 7.96679 4.28234H2.63658C1.18384 4.28234 0.0017118 5.46447 0.0017118 6.91763L0 39.7193C0 41.1721 1.18213 42.3542 2.63487 42.3542H35.1102C36.563 42.3542 37.7451 41.1721 37.7451 39.7193L37.7468 27.1581C39.0236 26.6723 40.2011 25.9309 41.2085 24.9556C43.1133 23.1113 44.2128 20.6386 44.3037 17.9929C44.3188 17.5505 43.9727 17.1794 43.5298 17.164C43.0903 17.1494 42.7163 17.4951 42.7009 17.9379C42.5729 21.6619 40.124 24.7367 36.7611 25.8096C36.7148 25.8204 36.6697 25.8346 36.6272 25.8533C35.8358 26.0914 34.9956 26.219 34.1241 26.219C29.3923 26.219 25.5423 22.3691 25.5423 17.6372C25.5423 12.9054 29.3923 9.05547 34.1241 9.05547C35.9417 9.05547 37.6984 9.63006 39.1558 10.6863L33.6308 16.2116L31.0051 13.5855ZM25.2454 7.1724C25.2454 7.32001 25.1258 7.43969 24.9782 7.43969H12.7704C12.6227 7.43969 12.5031 7.32001 12.5031 7.1724V3.3675C12.5031 2.39469 13.2941 1.60369 14.2669 1.60369H23.4816C24.454 1.60369 25.2454 2.39469 25.2454 3.3675V7.1724ZM42.4928 9.61755C42.6875 9.42241 42.9465 9.31524 43.2217 9.31524C43.4973 9.31524 43.7563 9.42282 43.9514 9.61755C44.3534 10.0195 44.3534 10.6742 43.9514 11.0761L34.3597 20.6674C34.165 20.8621 33.906 20.9697 33.6304 20.9697C33.3548 20.9697 33.0958 20.8621 32.9011 20.6674L28.412 16.1783C28.2172 15.9835 28.1101 15.7246 28.1101 15.449C28.1101 15.1733 28.2172 14.9144 28.4124 14.7197C28.6071 14.5249 28.866 14.4174 29.1417 14.4174C29.4169 14.4174 29.6762 14.5249 29.871 14.7197L33.0637 17.9125C33.3769 18.2256 33.8843 18.2256 34.1975 17.9125L42.4928 9.61755Z" fill="white"/>
<path d="M21.8257 20.1259H12.0555C11.6127 20.1259 11.2541 20.4849 11.2541 20.9277C11.2541 21.3701 11.6127 21.7292 12.0555 21.7292H21.8257C22.2685 21.7292 22.6275 21.3701 22.6275 20.9277C22.6275 20.4849 22.2685 20.1259 21.8257 20.1259Z" fill="white"/>
<path d="M10.5234 11.8481H5.12815C4.68532 11.8481 4.3263 12.2071 4.3263 12.6499C4.3263 13.0928 4.68532 13.4518 5.12815 13.4518H10.5234C10.9662 13.4518 11.3252 13.0928 11.3252 12.6499C11.3252 12.2071 10.9662 11.8481 10.5234 11.8481Z" fill="white"/>
<path d="M12.0555 25.4488H21.8257C22.2685 25.4488 22.6275 25.0898 22.6275 24.6469C22.6275 24.2045 22.2685 23.8455 21.8257 23.8455H12.0555C11.6127 23.8455 11.2541 24.2045 11.2541 24.6469C11.2541 25.0898 11.6127 25.4488 12.0555 25.4488Z" fill="white"/>
<path d="M25.2007 29.8505H12.0555C11.6127 29.8505 11.2541 30.2096 11.2541 30.6524C11.2541 31.0952 11.6127 31.4542 12.0555 31.4542H25.2007C25.6435 31.4542 26.0025 31.0952 26.0025 30.6524C26.0025 30.2096 25.6435 29.8505 25.2007 29.8505Z" fill="white"/>
<path d="M12.0555 35.1754H18.6283C19.0712 35.1754 19.4298 34.8164 19.4298 34.3736C19.4298 33.9308 19.0712 33.5717 18.6283 33.5717H12.0555C11.6127 33.5717 11.2541 33.9308 11.2541 34.3736C11.2541 34.8164 11.6127 35.1754 12.0555 35.1754Z" fill="white"/>
<path d="M6.8312 19.4318C5.04529 19.4318 3.59255 20.8846 3.59255 22.6705C3.59255 24.4564 5.04529 25.9091 6.8312 25.9091C8.61711 25.9091 10.0699 24.4564 10.0699 22.6705C10.0699 20.8846 8.61711 19.4318 6.8312 19.4318ZM6.8312 24.3055C5.9297 24.3055 5.19624 23.572 5.19624 22.6705C5.19624 21.769 5.9297 21.0355 6.8312 21.0355C7.7327 21.0355 8.46616 21.769 8.46616 22.6705C8.46616 23.572 7.7327 24.3055 6.8312 24.3055Z" fill="white"/>
<path d="M6.8312 29.2756C5.04529 29.2756 3.59255 30.7288 3.59255 32.5143C3.59255 34.3002 5.04529 35.7529 6.8312 35.7529C8.61711 35.7529 10.0699 34.3002 10.0699 32.5143C10.0699 30.7288 8.61711 29.2756 6.8312 29.2756ZM6.8312 34.1496C5.9297 34.1496 5.19624 33.4162 5.19624 32.5147C5.19624 31.6128 5.9297 30.8793 6.8312 30.8793C7.7327 30.8793 8.46616 31.6128 8.46616 32.5147C8.46616 33.4162 7.7327 34.1496 6.8312 34.1496Z" fill="white"/>
</svg>
