<svg width="16" height="20" viewBox="0 0 16 20" fill="none" xmlns="http://www.w3.org/2000/svg">
<path id="map-pin-Regular" d="M6.99951 10.4337V14.7598C6.99951 15.1738 7.33551 15.5098 7.74951 15.5098C8.16351 15.5098 8.49951 15.1738 8.49951 14.7598V10.4337C11.0375 10.0657 12.9995 7.89777 12.9995 5.25977C12.9995 2.36477 10.6445 0.00976562 7.74951 0.00976562C4.85451 0.00976562 2.49951 2.36477 2.49951 5.25977C2.49951 7.89777 4.46151 10.0657 6.99951 10.4337ZM7.74951 1.50977C9.81751 1.50977 11.4995 3.19177 11.4995 5.25977C11.4995 7.32777 9.81751 9.00977 7.74951 9.00977C5.68151 9.00977 3.99951 7.32777 3.99951 5.25977C3.99951 3.19177 5.68151 1.50977 7.74951 1.50977ZM15.4995 15.7598C15.4995 17.8978 12.1675 19.5098 7.74951 19.5098C3.33151 19.5098 -0.000488281 17.8978 -0.000488281 15.7598C-0.000488281 14.1858 1.71952 12.8978 4.60052 12.3148C5.00952 12.2348 5.4025 12.4948 5.4845 12.9008C5.5675 13.3068 5.3045 13.7028 4.8985 13.7848C2.6675 14.2368 1.49951 15.1208 1.49951 15.7598C1.49951 16.6768 3.93451 18.0098 7.74951 18.0098C11.5645 18.0098 13.9995 16.6768 13.9995 15.7598C13.9995 15.1208 12.8325 14.2368 10.6005 13.7848C10.1945 13.7028 9.93253 13.3068 10.0145 12.9008C10.0965 12.4948 10.4935 12.2348 10.8985 12.3148C13.7795 12.8978 15.4995 14.1858 15.4995 15.7598Z" fill="white"/>
</svg>
