<svg xmlns="http://www.w3.org/2000/svg" viewBox="0 0 79 94">
	<path d="M6,30c-3.31,0-6,2.69-6,6v24c0,3.31,2.69,6,6,6s6-2.69,6-6v-24c0-3.31-2.69-6-6-6Z" />
	<path d="M73,30c-3.31,0-6,2.69-6,6v24c0,3.31,2.69,6,6,6s6-2.69,6-6v-24c0-3.31-2.69-6-6-6Z" />
	<path d="M52.54,8.71l4.31-7.19c.28-.47.13-1.09-.34-1.37-.47-.29-1.09-.13-1.37.34l-4.44,7.39c-6.93-2.8-15.23-2.83-22.19-.09l-3.62-7.24c-.25-.49-.85-.69-1.34-.45-.49.25-.69.85-.45,1.34l3.57,7.15c-7.28,3.52-12.68,10.32-12.68,20.41h51c0-9.98-5.29-16.74-12.46-20.3Z" />
	<path d="M65,31H14v10h0v28c0,3.31,2.69,6,6,6h4v13c0,3.31,2.69,6,6,6s6-2.69,6-6v-13h7v13c0,3.31,2.69,6,6,6s6-2.69,6-6v-13h4c3.31,0,6-2.69,6-6v-31s0,0,0,0v-6.99Z" />
</svg>
