        <svg width="137" height="133" viewBox="0 0 137 133" fill="none" xmlns="http://www.w3.org/2000/svg">
            <path opacity="0.5" d="M1 132.626C1 116.799 3.40487 86.7803 45.8178 86.7803C88.2308 86.7803 109.036 86.7803 114.138 86.7803C121.425 85.8707 136 77.7203 136 52.3957C136 27.0712 136 5.45798 136 0.000106812" stroke="url(#paint0_linear_326_524)" stroke-width="1.85969" />
            <path opacity="1" d="M1 132.626C1 116.799 3.40487 86.7803 45.8178 86.7803C88.2308 86.7803 109.036 86.7803 114.138 86.7803C121.425 85.8707 136 77.7203 136 52.3957C136 27.0712 136 5.45798 136 0.000106812" stroke="url(#bright)" stroke-width="1.85969" />
            <defs>
                <linearGradient id="paint0_linear_326_524" x1="68.1978" y1="196.484" x2="68.7717" y2="-12.0073" gradientUnits="userSpaceOnUse">
                    <stop stop-color="white" stop-opacity="0" />
                    <stop offset="0.378642" stop-color="white" stop-opacity="0.302785" />
                    <stop offset="0.686232" stop-color="white" stop-opacity="0.909653" />
                    <stop offset="1" stop-color="white" stop-opacity="0" />
                </linearGradient>
                <linearGradient id="bright" x1="31.6667" y1="10" x2="90.647" y2="-10" gradientUnits="userSpaceOnUse">
                    <stop stop-color="white">
                        <animate attributeName="stop-opacity" values="1; 1; 0" keyTimes="0; 0.8; 1" dur="5s" repeatCount="indefinite" />
                    </stop>
                    <stop offset="1" stop-color="transparent">
                        <animate attributeName="stop-opacity" values="1; 1; 0" keyTimes="0; 0.8; 1" dur="5s" repeatCount="indefinite" />
                    </stop>
                    <animate attributeName="x1" values="-500; 90; 31.6667" dur="5s" repeatCount="indefinite" />
                    <animate attributeName="y1" values="10; 50; 10" dur="5s" repeatCount="indefinite" />
                    <animate attributeName="x2" values="90.647; 150; 90.647" dur="5s" repeatCount="indefinite" />
                    <animate attributeName="y2" values="-10; 40; -1000" dur="5s" repeatCount="indefinite" />
                </linearGradient>
            </defs>
        </svg>